<?xml version="1.0" encoding="utf-8"?>
<!-- Generator: Adobe Illustrator 23.0.1, SVG Export Plug-In . SVG Version: 6.00 Build 0)  -->
<svg version="1.1" id="Layer_1" xmlns="http://www.w3.org/2000/svg" xmlns:xlink="http://www.w3.org/1999/xlink" x="0px" y="0px"
	 viewBox="0 0 814 256" style="enable-background:new 0 0 814 256;" xml:space="preserve">
<style type="text/css">
	.st0{fill-rule:evenodd;clip-rule:evenodd;fill:#192120;}
	.st1{clip-path:url(#SVGID_2_);fill:#53BDD6;stroke:#53BDD6;stroke-width:3;stroke-miterlimit:10;}
	.st2{filter:url(#Adobe_OpacityMaskFilter);}
	.st3{fill:url(#SVGID_4_);}
	.st4{mask:url(#SVGID_3_);fill-rule:evenodd;clip-rule:evenodd;fill:#00ABE9;}
	.st5{filter:url(#Adobe_OpacityMaskFilter_1_);}
	.st6{fill:url(#SVGID_6_);}
	.st7{mask:url(#SVGID_5_);fill-rule:evenodd;clip-rule:evenodd;fill:#00ABE9;}
	.st8{filter:url(#Adobe_OpacityMaskFilter_2_);}
	.st9{fill:url(#SVGID_8_);}
	.st10{mask:url(#SVGID_7_);fill-rule:evenodd;clip-rule:evenodd;fill:#FF99FF;}
	.st11{filter:url(#Adobe_OpacityMaskFilter_3_);}
	.st12{fill:url(#SVGID_10_);}
	.st13{mask:url(#SVGID_9_);fill-rule:evenodd;clip-rule:evenodd;fill:#FF99FF;}
	.st14{filter:url(#Adobe_OpacityMaskFilter_4_);}
	.st15{fill:url(#SVGID_12_);}
	.st16{mask:url(#SVGID_11_);fill-rule:evenodd;clip-rule:evenodd;fill:#00ABE9;}
	.st17{clip-path:url(#SVGID_14_);fill:url(#SVGID_15_);}
	.st18{filter:url(#Adobe_OpacityMaskFilter_5_);}
	.st19{fill:url(#SVGID_17_);}
	.st20{mask:url(#SVGID_16_);fill-rule:evenodd;clip-rule:evenodd;fill:#B5F4FF;}
	.st21{filter:url(#Adobe_OpacityMaskFilter_6_);}
	.st22{fill:url(#SVGID_19_);}
	.st23{mask:url(#SVGID_18_);fill-rule:evenodd;clip-rule:evenodd;fill:#66E5FB;}
	.st24{filter:url(#Adobe_OpacityMaskFilter_7_);}
	.st25{fill:url(#SVGID_21_);}
	.st26{opacity:0.6;mask:url(#SVGID_20_);fill-rule:evenodd;clip-rule:evenodd;fill:#00ABE9;}
	.st27{clip-path:url(#SVGID_23_);fill:url(#SVGID_24_);}
	.st28{opacity:0.1;}
	.st29{fill:#FFFFFF;}
</style>
<path class="st0" d="M733.3,188.6l-15.9-26.6l-16.1,26.6h-35.7l33.9-52l-32-49.8h35.9l13.8,23.6l14-23.6h35.7l-32,49.6l34,52.2
	H733.3z M661.7,164.9c-3.9,8.1-9.3,14.4-16,18.9c-6.7,4.5-14.1,6.7-22.1,6.7c-11.2,0-20-4.4-26.4-13.1v52.4h-30.5V86.9h29.6
	l0.4,11.8c6.5-9.1,15.5-13.7,26.9-13.7c8.1,0,15.5,2.2,22.2,6.5c6.7,4.4,12,10.5,15.9,18.4c3.9,7.9,5.9,17,5.9,27.2
	C667.6,147.6,665.6,156.8,661.7,164.9z M630.7,118.5c-3.6-4.9-8.2-7.3-13.9-7.3c-5.9,0-10.6,2.4-14.1,7.3
	c-3.6,4.9-5.3,11.3-5.3,19.3c0,8,1.8,14.4,5.3,19.3c3.6,4.9,8.3,7.3,14.1,7.3c5.7,0,10.4-2.5,13.9-7.4c3.6-4.9,5.3-11.4,5.3-19.4
	C636,129.7,634.2,123.4,630.7,118.5z M518.7,176.5c-6.6,9.4-15.7,14-27.1,14c-8.1,0-15.5-2.2-22.2-6.5c-6.7-4.4-12-10.5-15.9-18.5
	c-3.9-8-5.9-17.1-5.9-27.3c0-10.4,2-19.6,5.9-27.6s9.3-14.3,16-18.8c6.7-4.5,14.1-6.7,22.1-6.7c11.3,0,20.3,4.7,26.9,14l0.6-12.2
	h29.4v101.8h-29.4L518.7,176.5z M512.6,118.5c-3.6-4.9-8.3-7.3-14.1-7.3c-5.7,0-10.4,2.5-13.9,7.4c-3.6,4.9-5.3,11.4-5.3,19.4
	c0,7.9,1.8,14.2,5.3,19.1c3.6,4.9,8.2,7.3,13.9,7.3c5.9,0,10.6-2.4,14.1-7.3c3.6-4.9,5.3-11.3,5.3-19.3
	C517.9,129.8,516.2,123.4,512.6,118.5z M404.6,126.5c0-4.6-1.5-8.3-4.4-11.1c-2.9-2.8-6.8-4.2-11.7-4.2c-5,0-9,1.4-11.9,4.2
	c-2.9,2.8-4.4,6.5-4.4,11.1v62.1h-30.5V86.9h29.6l0.4,10.7c3.5-4.1,7.7-7.2,12.5-9.4c4.9-2.1,9.9-3.2,15.2-3.2
	c10.7,0,19.4,3.4,26,10.2c6.6,6.8,9.9,15.7,9.9,26.7v66.8h-30.7V126.5z M292.1,124.1l6,1.9c9.4,2.9,16.6,6.7,21.6,11.4
	c5,4.7,7.6,11.4,7.6,20c0,6.6-1.7,12.4-5.1,17.4c-3.4,5-8.2,8.9-14.4,11.6c-6.2,2.7-13.3,4.1-21.2,4.1c-7.5,0-14.4-1.1-20.8-3.2
	c-6.4-2.1-11.9-5.2-16.5-9.4l11.4-18.5c7.9,4.9,16.2,7.3,25.1,7.3c3.1,0,5.6-0.7,7.5-2c1.9-1.3,2.8-3.1,2.8-5.3
	c0-2.2-1.1-4.1-3.3-5.5c-2.2-1.4-5.5-2.8-9.8-4l-6.2-1.9c-9.1-2.7-15.9-6.1-20.5-10.2c-4.6-4.1-6.8-9.9-6.8-17.5
	c0-10.7,3.5-19.3,10.6-25.7c7-6.4,16.4-9.6,28.2-9.6c15.3,0,27.7,3.5,37.2,10.5l-12.7,20c-6.7-4.4-13.8-6.5-21.1-6.5
	c-3.4,0-6.1,0.6-8,1.8c-2,1.2-3,2.8-3,4.8c0,2,1,3.7,3,5.1C285.5,121.9,288.4,123.1,292.1,124.1z"/>
<g>
	<defs>
		<path id="SVGID_1_" d="M195.9,82.1c-21-16.3-53.8-24.4-86.6-24.4s-65.7,8.1-86.6,24.4c0.1,37.7,28.6,68,35.1,74.5
			c0.4,0.4,0.9,0.9,1.3,1.3l0,0c12.2,11.6,28.9,23.2,50.2,28.8c18.5-4.9,33.5-14.3,45.1-24.3l0,0l0,0c0.6-0.5,5.6-4.9,12-12.1
			C166.8,149.9,196.6,111.2,195.9,82.1"/>
	</defs>
	<use xlink:href="#SVGID_1_"  style="overflow:visible;fill-rule:evenodd;clip-rule:evenodd;fill:#53BDD6;"/>
	<clipPath id="SVGID_2_">
		<use xlink:href="#SVGID_1_"  style="overflow:visible;"/>
	</clipPath>
	<rect x="22.6" y="57.7" class="st1" width="174" height="129"/>
	
		<use xlink:href="#SVGID_1_"  style="overflow:visible;fill-rule:evenodd;clip-rule:evenodd;fill:none;stroke:#53BDD6;stroke-width:3;stroke-miterlimit:10;"/>
</g>
<defs>
	<filter id="Adobe_OpacityMaskFilter" filterUnits="userSpaceOnUse" x="104" y="65.9" width="91.9" height="120.9">
		<feColorMatrix  type="matrix" values="1 0 0 0 0  0 1 0 0 0  0 0 1 0 0  0 0 0 1 0"/>
	</filter>
</defs>
<mask maskUnits="userSpaceOnUse" x="104" y="65.9" width="91.9" height="120.9" id="SVGID_3_">
	<g class="st2">
		
			<linearGradient id="SVGID_4_" gradientUnits="userSpaceOnUse" x1="-103.7344" y1="639.5135" x2="-19.0815" y2="323.6129" gradientTransform="matrix(1 0 0 1 193.0453 -286.8854)">
			<stop  offset="0" style="stop-color:#FFFFFF"/>
			<stop  offset="1" style="stop-color:#000000"/>
		</linearGradient>
		<rect x="104" y="65.9" class="st3" width="91.9" height="120.9"/>
	</g>
</mask>
<path class="st4" d="M195.9,82.1c-8.8-6.9-19.8-12.3-32-16.2c0,0,15.2,63.6-54.7,115.2c-1.8,1.4-3.6,2.7-5.2,4.1
	c1.7,0.5,3.4,1.1,5.2,1.5c18.5-4.9,33.5-14.3,45.1-24.3l0,0l0,0c0.6-0.5,5.6-4.9,12-12.1C166.8,149.9,196.6,111.2,195.9,82.1"/>
<defs>
	<filter id="Adobe_OpacityMaskFilter_1_" filterUnits="userSpaceOnUse" x="102.9" y="82.1" width="92.9" height="104.7">
		<feColorMatrix  type="matrix" values="1 0 0 0 0  0 1 0 0 0  0 0 1 0 0  0 0 0 1 0"/>
	</filter>
</defs>
<mask maskUnits="userSpaceOnUse" x="102.9" y="82.1" width="92.9" height="104.7" id="SVGID_5_">
	<g class="st5">
		
			<linearGradient id="SVGID_6_" gradientUnits="userSpaceOnUse" x1="-13.0684" y1="531.8032" x2="-65.5256" y2="336.0103" gradientTransform="matrix(1 0 0 1 192.0858 -286.8854)">
			<stop  offset="0" style="stop-color:#FFFFFF"/>
			<stop  offset="8.506531e-02" style="stop-color:#F5F5F5"/>
			<stop  offset="0.2288" style="stop-color:#DBDBDB"/>
			<stop  offset="0.4137" style="stop-color:#B0B0B0"/>
			<stop  offset="0.6325" style="stop-color:#747474"/>
			<stop  offset="0.8771" style="stop-color:#292929"/>
			<stop  offset="1" style="stop-color:#000000"/>
		</linearGradient>
		<rect x="102.9" y="82.1" class="st6" width="92.9" height="104.7"/>
	</g>
</mask>
<path class="st7" d="M102.9,184.9c2.1,0.7,4.2,1.3,6.3,1.9c18.5-4.9,33.5-14.3,45.1-24.3l0,0l0,0c0.6-0.5,5.6-4.9,12-12.1
	c0.4-0.5,30.2-39.2,29.5-68.3c0,0-17.7,60.9-86.6,99C106.9,182.4,104.8,183.7,102.9,184.9"/>
<defs>
	<filter id="Adobe_OpacityMaskFilter_2_" filterUnits="userSpaceOnUse" x="22.6" y="57.7" width="141.3" height="46">
		<feColorMatrix  type="matrix" values="1 0 0 0 0  0 1 0 0 0  0 0 1 0 0  0 0 0 1 0"/>
	</filter>
</defs>
<mask maskUnits="userSpaceOnUse" x="22.6" y="57.7" width="141.3" height="46" id="SVGID_7_">
	<g class="st8">
		
			<linearGradient id="SVGID_8_" gradientUnits="userSpaceOnUse" x1="-250.1222" y1="381.8156" x2="50.6526" y2="462.4118" gradientTransform="matrix(1 0 0 1 120.5969 -360.8104)">
			<stop  offset="0" style="stop-color:#FFFFFF"/>
			<stop  offset="0.1001" style="stop-color:#D9D9D9"/>
			<stop  offset="0.2887" style="stop-color:#989898"/>
			<stop  offset="0.4685" style="stop-color:#626262"/>
			<stop  offset="0.6344" style="stop-color:#383838"/>
			<stop  offset="0.7834" style="stop-color:#191919"/>
			<stop  offset="0.9103" style="stop-color:#070707"/>
			<stop  offset="1" style="stop-color:#000000"/>
		</linearGradient>
		<rect x="22.6" y="57.7" class="st9" width="141.3" height="46"/>
	</g>
</mask>
<path class="st10" d="M163.9,65.9c-16.7-5.4-35.7-8.2-54.7-8.2c-32.8,0-65.7,8.1-86.6,24.4c0,7.5,1.2,14.8,3.1,21.6
	C99.8,50.4,163.9,65.9,163.9,65.9"/>
<defs>
	<filter id="Adobe_OpacityMaskFilter_3_" filterUnits="userSpaceOnUse" x="22.6" y="57.7" width="97.2" height="77.1">
		<feColorMatrix  type="matrix" values="1 0 0 0 0  0 1 0 0 0  0 0 1 0 0  0 0 0 1 0"/>
	</filter>
</defs>
<mask maskUnits="userSpaceOnUse" x="22.6" y="57.7" width="97.2" height="77.1" id="SVGID_9_">
	<g class="st11">
		
			<linearGradient id="SVGID_10_" gradientUnits="userSpaceOnUse" x1="-164.6588" y1="314.126" x2="-25.5596" y2="453.2252" gradientTransform="matrix(1 0 0 1 120.5969 -333.1205)">
			<stop  offset="0" style="stop-color:#FFFFFF"/>
			<stop  offset="1" style="stop-color:#000000"/>
		</linearGradient>
		<rect x="22.6" y="57.7" class="st12" width="97.2" height="77.1"/>
	</g>
</mask>
<path class="st13" d="M119.8,58c-3.5-0.2-7-0.3-10.5-0.3c-32.8,0-65.7,8.1-86.6,24.4c0.1,20.7,8.7,39.2,17.5,52.7
	C71.7,74.2,119.8,58,119.8,58"/>
<defs>
	<filter id="Adobe_OpacityMaskFilter_4_" filterUnits="userSpaceOnUse" x="22.6" y="82.1" width="116.2" height="104.7">
		<feColorMatrix  type="matrix" values="1 0 0 0 0  0 1 0 0 0  0 0 1 0 0  0 0 0 1 0"/>
	</filter>
</defs>
<mask maskUnits="userSpaceOnUse" x="22.6" y="82.1" width="116.2" height="104.7" id="SVGID_11_">
	<g class="st14">
		
			<linearGradient id="SVGID_12_" gradientUnits="userSpaceOnUse" x1="-79.0738" y1="489.2238" x2="-21.2113" y2="388.973" gradientTransform="matrix(1 0 0 1 120.5969 -286.8854)">
			<stop  offset="0" style="stop-color:#FFFFFF"/>
			<stop  offset="8.636215e-02" style="stop-color:#F7F7F7"/>
			<stop  offset="0.2175" style="stop-color:#E2E2E2"/>
			<stop  offset="0.3771" style="stop-color:#C0C0C0"/>
			<stop  offset="0.559" style="stop-color:#909090"/>
			<stop  offset="0.7598" style="stop-color:#535353"/>
			<stop  offset="0.9735" style="stop-color:#0A0A0A"/>
			<stop  offset="1" style="stop-color:#000000"/>
		</linearGradient>
		<rect x="22.6" y="82.1" class="st15" width="116.2" height="104.7"/>
	</g>
</mask>
<path class="st16" d="M22.6,82.1c0.1,37.7,28.6,68,35.1,74.5c0.4,0.4,0.9,0.9,1.3,1.3l0,0c12.2,11.6,28.9,23.2,50.2,28.8
	c11.1-2.9,21-7.5,29.6-12.8C30.9,148.2,22.6,82.1,22.6,82.1"/>
<g>
	<defs>
		<path id="SVGID_13_" d="M105.9,182.9c89.8-45.5,90-100.8,90-100.8c2.1,57.9-23.2,97-47,120.6C136,197.9,119.1,190.9,105.9,182.9"
			/>
	</defs>
	<clipPath id="SVGID_14_">
		<use xlink:href="#SVGID_13_"  style="overflow:visible;"/>
	</clipPath>
	<linearGradient id="SVGID_15_" gradientUnits="userSpaceOnUse" x1="54.1968" y1="240.1616" x2="213.4113" y2="80.9471">
		<stop  offset="0" style="stop-color:#0131B9"/>
		<stop  offset="1" style="stop-color:#2DDAFF"/>
	</linearGradient>
	<rect x="105.9" y="82.1" class="st17" width="92.1" height="120.6"/>
</g>
<defs>
	<filter id="Adobe_OpacityMaskFilter_5_" filterUnits="userSpaceOnUse" x="107.5" y="91.1" width="87" height="90.9">
		<feColorMatrix  type="matrix" values="1 0 0 0 0  0 1 0 0 0  0 0 1 0 0  0 0 0 1 0"/>
	</filter>
</defs>
<mask maskUnits="userSpaceOnUse" x="107.5" y="91.1" width="87" height="90.9" id="SVGID_16_">
	<g class="st18">
		
			<linearGradient id="SVGID_17_" gradientUnits="userSpaceOnUse" x1="-15.2939" y1="397.8192" x2="-78.5841" y2="461.0982" gradientTransform="matrix(1 0 0 1 196.1688 -291.126)">
			<stop  offset="0" style="stop-color:#FFFFFF"/>
			<stop  offset="1" style="stop-color:#000000"/>
		</linearGradient>
		<rect x="107.5" y="91.1" class="st19" width="87" height="90.9"/>
	</g>
</mask>
<path class="st20" d="M107.5,182c66.5-34.2,82.9-73.6,87-90.9C190.4,110,176,151,107.5,182"/>
<defs>
	<filter id="Adobe_OpacityMaskFilter_6_" filterUnits="userSpaceOnUse" x="125.8" y="82.3" width="70.2" height="120.5">
		<feColorMatrix  type="matrix" values="1 0 0 0 0  0 1 0 0 0  0 0 1 0 0  0 0 0 1 0"/>
	</filter>
</defs>
<mask maskUnits="userSpaceOnUse" x="125.8" y="82.3" width="70.2" height="120.5" id="SVGID_18_">
	<g class="st21">
		
			<linearGradient id="SVGID_19_" gradientUnits="userSpaceOnUse" x1="-0.5857" y1="326.9765" x2="-68.8654" y2="445.2299" gradientTransform="matrix(1 0 0 1 212.3853 -272.6612)">
			<stop  offset="0" style="stop-color:#FFFFFF"/>
			<stop  offset="1" style="stop-color:#000000"/>
		</linearGradient>
		<rect x="125.8" y="82.3" class="st22" width="70.2" height="120.5"/>
	</g>
</mask>
<path class="st23" d="M195.9,82.3c2.1,57.9-23.2,96.8-47,120.5c-6.9-2.6-15-5.8-23.1-9.5C196.4,143.2,196,85.5,195.9,82.3"/>
<defs>
	<filter id="Adobe_OpacityMaskFilter_7_" filterUnits="userSpaceOnUse" x="105.9" y="170.9" width="62.5" height="31.9">
		<feColorMatrix  type="matrix" values="1 0 0 0 0  0 1 0 0 0  0 0 1 0 0  0 0 0 1 0"/>
	</filter>
</defs>
<mask maskUnits="userSpaceOnUse" x="105.9" y="170.9" width="62.5" height="31.9" id="SVGID_20_">
	<g class="st24">
		
			<linearGradient id="SVGID_21_" gradientUnits="userSpaceOnUse" x1="-94.3157" y1="523.1213" x2="-39.1166" y2="427.5005" gradientTransform="matrix(1 0 0 1 194.675 -272.6612)">
			<stop  offset="0" style="stop-color:#FFFFFF"/>
			<stop  offset="1" style="stop-color:#000000"/>
		</linearGradient>
		<rect x="105.9" y="170.9" class="st25" width="62.5" height="31.9"/>
	</g>
</mask>
<path class="st26" d="M105.9,182.9c7.8-3.9,14.9-7.9,21.3-12c12.2,3.5,25.9,6.4,41.1,8.6c-6.2,9-12.9,16.7-19.5,23.2
	C136,197.9,119.1,190.9,105.9,182.9"/>
<g>
	<defs>
		<path id="SVGID_22_" d="M109.2,232c0,0,21.1-9.9,42.6-32.3C22.8,152.5,22.6,82.1,22.6,82.1C18.7,189.6,109.2,232,109.2,232"/>
	</defs>
	<clipPath id="SVGID_23_">
		<use xlink:href="#SVGID_22_"  style="overflow:visible;"/>
	</clipPath>
	<linearGradient id="SVGID_24_" gradientUnits="userSpaceOnUse" x1="350.8182" y1="310.4039" x2="-31.5528" y2="89.6297">
		<stop  offset="0" style="stop-color:#0131B9"/>
		<stop  offset="0.1197" style="stop-color:#0C5CCB"/>
		<stop  offset="0.2475" style="stop-color:#1682DB"/>
		<stop  offset="0.3806" style="stop-color:#1EA2E8"/>
		<stop  offset="0.5181" style="stop-color:#25BBF2"/>
		<stop  offset="0.6621" style="stop-color:#29CCF9"/>
		<stop  offset="0.8165" style="stop-color:#2CD7FE"/>
		<stop  offset="1" style="stop-color:#2DDAFF"/>
	</linearGradient>
	<rect x="18.7" y="82.1" class="st27" width="133.1" height="149.9"/>
</g>
<g>
	<g class="st28">
		<path d="M134.2,117.8l-21.9,21.9l-4.7,4.7c-1.1,1.1-2.6,1.7-4,1.7c-1.5,0-2.9-0.6-4-1.7l-10.2-10.2c-2.2-2.2-2.2-5.9,0-8.1
			c2.2-2.2,5.9-2.2,8.1,0l6.1,6.1l22.6-22.6c2.2-2.2,5.9-2.2,8.1,0C136.4,111.9,136.4,115.5,134.2,117.8z"/>
	</g>
	<g>
		<path class="st29" d="M134.2,113.8l-21.9,21.9l-4.7,4.7c-1.1,1.1-2.6,1.7-4,1.7c-1.5,0-2.9-0.6-4-1.7l-10.2-10.2
			c-2.2-2.2-2.2-5.9,0-8.1c2.2-2.2,5.9-2.2,8.1,0l6.1,6.1l22.6-22.6c2.2-2.2,5.9-2.2,8.1,0C136.4,107.9,136.4,111.5,134.2,113.8z"/>
	</g>
</g>
</svg>
